<svg xmlns:xlink="http://www.w3.org/1999/xlink" xmlns="http://www.w3.org/2000/svg" viewBox="0 0 186.046 61" class="header__logoSVG" role="img" aria-labelledby="homepageLogoTitle" alt="QA Logo" width="186.046"  height="61" >
                        <title id="homepageLogoTitle">QA Homepage</title>
                    
                        <g fill="#FFFFFF">
                            <path d="M120.356 46.944a27.557 27.557 0 0 0 5.735-16.444c0-16.53-13.663-29.938-30.529-29.938S65.033 13.97 65.033 30.5s13.663 29.938 30.529 29.938h26.467l5.2-13.494Zm-24.794 0A16.45 16.45 0 1 1 111.585 30.5a16.271 16.271 0 0 1-16.023 16.444Z" fill="#FFFFFF"></path>
                            <path d="M163.279 1.405H148.1l-17.57 45.539-5.2 13.494h14.42l4.723-12.9h22.01l4.723 12.9h14.841l-22.77-59.033Zm-14.254 33.9 6.495-17.456 6.408 17.456Z" fill="#FFFFFF"></path>
                        </g>
                    
                        <circle cx="7.679" cy="7.679" r="7.679" fill="#FC5B61" transform="translate(19.864)"></circle>
                        <circle cx="7.679" cy="7.679" r="7.679" fill="#FFDC57" transform="translate(39.552 34.239)"></circle>
                        <circle cx="7.679" cy="7.679" r="7.679" fill="#2FB7DA" transform="translate(0 34.271)"></circle>
                        
                        <g fill="#FFFFFF">
                            <path d="M7.679 42.378a.431.431 0 0 1-.214-.8l19.826-11.4a.431.431 0 1 1 .428.747L7.892 42.316a.43.43 0 0 1-.213.062Z" fill="#FFFFFF"></path>
                            <path d="M27.501 30.979a.43.43 0 0 1-.214-.057L7.503 19.453a.43.43 0 0 1 .431-.744l19.784 11.469a.43.43 0 0 1-.217.8Z" fill="#FFFFFF"></path>
                            <path d="M27.501 30.979a.429.429 0 0 1-.428-.431l.038-22.869a.429.429 0 0 1 .431-.428.429.429 0 0 1 .428.431l-.038 22.869a.429.429 0 0 1-.431.428Z" fill="#FFFFFF"></path>
                            <path d="M27.5 30.979a.431.431 0 0 1-.214-.8l19.826-11.4a.43046283.43046283 0 0 1 .428.747l-19.826 11.4a.43.43 0 0 1-.214.053Z" fill="#FFFFFF"></path>
                            <path d="M47.286 42.448a.431.431 0 0 1-.214-.057l-19.786-11.47a.43.43 0 0 1 .431-.744l19.784 11.469a.43.43 0 0 1-.217.8Z" fill="#FFFFFF"></path>
                            <path d="M27.463 53.848a.429.429 0 0 1-.428-.431l.038-22.869a.429.429 0 0 1 .431-.428.429.429 0 0 1 .428.431l-.038 22.869a.429.429 0 0 1-.431.428Z" fill="#FFFFFF"></path>
                        </g>
                        
                        <circle cx="7.679" cy="7.679" r="7.679" fill="#FCAC69" transform="translate(39.648 11.469)"></circle>
                        <circle cx="7.679" cy="7.679" r="7.679" fill="#9E84F5" transform="translate(.038 11.402)"></circle>
                        <circle cx="7.679" cy="7.679" r="7.679" fill="#82CAAE" transform="translate(19.727 45.641)"></circle>
                    </svg>